{"title":"III.2015.BRRip.480p.x264.AAC-VYTO [P2PDL]","uid":13013494,"size":328805636,"categoryP":"video","categoryS":"movies","magnet":"?xt=urn:btih:62eb38d046869df81bca0fbf11ed0c3f374615c6&amp;dn=III.2015.BRRip.480p.x264.AAC-VYTO+%5BP2PDL%5D&amp;tr=udp%3A%2F%2Ftracker.leechers-paradise.org%3A6969&amp;tr=udp%3A%2F%2Fzer0day.ch%3A1337&amp;tr=udp%3A%2F%2Fopen.demonii.com%3A1337&amp;tr=udp%3A%2F%2Ftracker.coppersurfer.tk%3A6969&amp;tr=udp%3A%2F%2Fexodus.desync.com%3A6969","seeders":0,"leechers":1,"uploader":"VYTOP2PDL","files":7,"time":1450274660,"description":"____    ____ ____    ____ .___________.  ______   \r\n     /   /      /   / |           | /  __    \r\n    /   /      /   /  `---|  |----`|  |  |  | \r\n        /     _    _/       |  |     |  |  |  | \r\n       /        |  |         |  |     |  `--'  | \r\n    __/         |__|         |__|      ______/  \r\n                                                  \r\nPresenting Small Encodes with quality for years!\r\n                                                                                                   \r\n                                                                                                   \r\n\r\nIII.2015.BRRip.480p.x264.AAC-VYTO\r\n\r\n\r\nGenre: Drama, Horror, Thriller   \nhttp://www.imdb.com/title/tt3993732/\r\n\r\n\r\nGeneral\r\nFormat                                   : MPEG-4\r\nFile size                                : 300 MiB\r\nDuration                                 : 1h 20mn\r\nOverall bit rate                         : 521 Kbps\r\n\r\nVideo\r\nFormat                                   : AVC\r\nBit rate                                 : 488 Kbps\r\nWidth                                    : 720 pixels\r\nHeight                                   : 304 pixels\r\nDisplay aspect ratio                     : 2.35:1\r\nFrame rate mode                          : Constant\r\nFrame rate                               : 24.000 fps\r\nBit depth                                : 8 bits\r\nStream size                              : 279 MiB (93%)\r\nWriting library                          : x264\r\n\r\nAudio\r\nFormat                                   : AAC\r\nBit rate mode                            : Variable\r\nBit rate                                 : 32.0 Kbps\r\nChannel(s)                               : 2 channels\r\nChannel positions                        : Front: L R \r\nSampling rate                            : 48.0 KHz \r\nStream size                              : 18.4 MiB (6%)\r\nLanguage                                 : Russian\r\n\r\nSubtitle                                 : Yes (English)\r\n\r\nScreen Shots: (Click to view)\r\n \nhttp://ititli.com/P1 \nhttp://ititli.com/PT \nhttp://ititli.com/PW \nhttp://ititli.com/Pg \nhttp://ititli.com/Pn \nhttp://ititli.com/Pw \nhttp://ititli.com/P2\r\n\r\n----------------------------------------------------------------------------------------------------\r\n\r\n\r\nEncoder Notes: Looking For Early Access To Anything You Can Provide WEBDL, DVDScr, DVDR, BluRay,\r\nDirect Audio, Music Releases and Seedboxes. If You Got anything to offer please contact us.\r\n\r\nSupport us by donating BC - 1FgwdzPsd1y25Gea8wP1qni35uGCtmkRCD\r\n\r\nSend some love!\r\nFind us and join us!","torrent":{"xt":"urn:btih:62eb38d046869df81bca0fbf11ed0c3f374615c6","amp;dn":"III.2015.BRRip.480p.x264.AAC-VYTO+%5BP2PDL%5D","amp;tr":["udp%3A%2F%2Ftracker.leechers-paradise.org%3A6969","udp%3A%2F%2Fzer0day.ch%3A1337","udp%3A%2F%2Fopen.demonii.com%3A1337","udp%3A%2F%2Ftracker.coppersurfer.tk%3A6969","udp%3A%2F%2Fexodus.desync.com%3A6969"],"infoHash":"62eb38d046869df81bca0fbf11ed0c3f374615c6","infoHashBuffer":{"type":"Buffer","data":[98,235,56,208,70,134,157,248,27,202,15,191,17,237,12,63,55,70,21,198]},"announce":[],"urlList":[]}}